# xmcd
#
# Track frame offsets:
#	182
#	19555
#	39070
#	55115
#	72927
#	91062
#	112440
#	129520
#	143762
#	165512
#	183222
#
# Disc length: 2610 seconds
#
# Revision: 5
# Processed by: cddbd v1.5.2PL0 Copyright (c) Steve Scherf et al.
# Submitted via: EasyCDDAExtractor 15.2.5.1
#
DISCID=870a300b
DTITLE=Various Artist - Stone Country
DYEAR=1997
DGENRE=Country
TTITLE0=Travis Tritt - Honky Tonk Women
TTITLE1=Tracy Lawrence - Paint It Black
TTITLE2=Deana Carter - Ruby Tuesday
TTITLE3=The Tractors - The Last Time
TTITLE4=Rodney Crowell - Jumpin' Jack Flash
TTITLE5=Sammy Kershaw - Angie
TTITLE6=Blackhawk - Wild Horses
TTITLE7=Collin Raye - Brown Sugar
TTITLE8=Little Texas - Beast Of Burden
TTITLE9=Nanci Griffith - No Expectations
TTITLE10=George Jones - Time Is On My Side
EXTD=YEAR: 1997
EXTT0=
EXTT1=
EXTT2=
EXTT3=
EXTT4=
EXTT5=
EXTT6=
EXTT7=
EXTT8=
EXTT9=
EXTT10=
PLAYORDER=
